HIERARCHY
ROOT Hips
{
 OFFSET 0.000000 0.000000 0.000000
 CHANNELS 6 Xposition Yposition Zposition Yrotation Xrotation Zrotation
 JOINT Chest
 {
  OFFSET 0.000000 9.585900 0.002600
  CHANNELS 3 Yrotation Xrotation Zrotation
  JOINT Chest2
  {
   OFFSET 0.000000 9.601200 -0.005300
   CHANNELS 3 Yrotation Xrotation Zrotation
   JOINT Chest3
   {
    OFFSET 0.000000 9.561800 0.000000
    CHANNELS 3 Yrotation Xrotation Zrotation
    JOINT Chest4
    {
     OFFSET 0.000000 9.552100 0.000000
     CHANNELS 3 Yrotation Xrotation Zrotation
     JOINT Neck
     {
      OFFSET 0.000000 14.453000 0.000000
      CHANNELS 3 Yrotation Xrotation Zrotation
      JOINT Head
      {
       OFFSET 0.000000 8.936500 -0.011300
       CHANNELS 3 Yrotation Xrotation Zrotation
       End Site
       {
        OFFSET 0.000000 17.073600 -0.006000
       }
      }
     }
     JOINT RightCollar
     {
      OFFSET -2.921100 9.558500 0.000000
      CHANNELS 3 Yrotation Xrotation Zrotation
      JOINT RightShoulder
      {
       OFFSET -13.519700 0.000000 0.000000
       CHANNELS 3 Yrotation Xrotation Zrotation
       JOINT RightElbow
       {
        OFFSET 0.000000 -29.696600 0.000000
        CHANNELS 3 Yrotation Xrotation Zrotation
        JOINT RightWrist
        {
         OFFSET 0.000000 -24.004700 0.000000
         CHANNELS 3 Yrotation Xrotation Zrotation
         End Site
         {
          OFFSET 0.000000 -17.728500 0.000000
         }
        }
       }
      }
     }
     JOINT LeftCollar
     {
      OFFSET 2.921100 9.558500 0.000000
      CHANNELS 3 Yrotation Xrotation Zrotation
      JOINT LeftShoulder
      {
       OFFSET 13.519700 0.000000 0.000000
       CHANNELS 3 Yrotation Xrotation Zrotation
       JOINT LeftElbow
       {
        OFFSET 0.000000 -29.696600 0.000000
        CHANNELS 3 Yrotation Xrotation Zrotation
        JOINT LeftWrist
        {
         OFFSET 0.000000 -24.004700 0.000000
         CHANNELS 3 Yrotation Xrotation Zrotation
         End Site
         {
          OFFSET 0.000000 -17.728500 0.000000
         }
        }
       }
      }
     }
    }
   }
  }
 }
 JOINT RightHip
 {
  OFFSET -7.771700 -0.012900 -0.001300
  CHANNELS 3 Yrotation Xrotation Zrotation
  JOINT RightKnee
  {
   OFFSET 0.000000 -40.869800 0.001200
   CHANNELS 3 Yrotation Xrotation Zrotation
   JOINT RightAnkle
   {
    OFFSET 0.000000 -39.717900 0.002100
    CHANNELS 3 Yrotation Xrotation Zrotation
    JOINT RightToe
    {
     OFFSET 0.000000 -4.965400 11.033500
     CHANNELS 3 Yrotation Xrotation Zrotation
     End Site
     {
      OFFSET 0.000000 -1.423100 5.872300
     }
    }
   }
  }
 }
 JOINT LeftHip
 {
  OFFSET 7.771700 -0.012900 -0.001300
  CHANNELS 3 Yrotation Xrotation Zrotation
  JOINT LeftKnee
  {
   OFFSET 0.000000 -40.869800 0.001200
   CHANNELS 3 Yrotation Xrotation Zrotation
   JOINT LeftAnkle
   {
    OFFSET 0.000000 -39.717900 0.002100
    CHANNELS 3 Yrotation Xrotation Zrotation
    JOINT LeftToe
    {
     OFFSET 0.000000 -4.965400 11.033500
     CHANNELS 3 Yrotation Xrotation Zrotation
     End Site
     {
      OFFSET 0.000000 -1.423100 5.872300
     }
    }
   }
  }
 }
}
MOTION
Frames: 5
Frame Time: 0.008333
0.000000 85.388000 0.000000 0.000000 -5.767877 0.000000 0.000000 11.653817 0.000000 0.000000 -5.885947 0.000000 0.000000 -0.000000 0.000000 0.000000 -0.000000 0.000000 0.000000 12.528835 0.000000 0.000000 0.711642 0.000000 0.000000 -0.000000 0.000000 0.000000 0.000000 -90.000000 0.000000 -2.309062 0.000000 0.000000 2.309062 0.000000 0.000000 -0.000000 0.000000 0.000000 -0.000000 90.000000 0.000000 -2.309062 0.000000 0.000000 2.309062 0.000000 0.000000 8.520406 0.000000 0.000000 1.905762 0.000000 -0.000000 -4.658285 0.000000 0.000000 -0.000000 0.000000 0.000000 8.520406 0.000000 0.000000 1.905762 0.000000 -0.000000 -4.658285 0.000000 0.000000 -0.000000 0.000000
-19.739436 58.163417 73.399431 174.367696 -30.772296 -2.894071 4.132223 22.896430 5.538320 0.392246 3.381548 0.464829 0.634966 5.525328 0.667272 2.660559 19.364642 2.868516 -0.863145 8.471543 -2.466243 -0.496564 -20.050577 -4.427963 2.739427 -0.040954 -2.215100 13.414477 -20.975269 -10.436929 26.249449 -63.061436 0.007408 21.669221 -9.339800 -41.710871 -4.721200 -0.791150 -2.446711 8.726066 -13.905748 -14.602729 -91.298504 -50.083139 52.908163 -10.075686 -3.621469 25.906370 7.327645 -40.628926 0.729661 -4.932721 64.671776 -7.050583 5.298793 10.881199 8.941060 -0.869222 -0.133817 -0.339385 -4.472954 -46.689811 4.161277 23.338519 58.434620 23.559260 -11.097032 41.839718 4.034215 0.488983 -20.619397 -7.494313
-19.728638 58.172552 73.400615 174.334396 -30.740750 -2.868381 4.153423 22.872077 5.516639 0.390386 3.404247 0.431021 0.643093 5.535731 0.665189 2.678342 19.341508 2.873294 -0.903344 8.320968 -2.521593 -0.545028 -20.377179 -4.451966 2.722378 -0.096842 -2.275445 13.004059 -20.221725 -10.282647 26.278158 -64.163911 0.679354 21.568931 -9.413135 -41.697060 -4.636046 -0.646602 -2.451062 9.328332 -13.309348 -14.495222 -91.876895 -50.585299 53.311188 -10.059604 -4.820036 26.942616 7.323091 -40.651256 0.715874 -4.880299 64.653631 -6.989744 5.308531 10.885296 8.918526 -0.884084 0.017244 -0.358415 -4.402870 -46.720470 4.148237 23.450200 58.401574 23.648805 -11.108891 41.887311 4.112405 0.454706 -20.667786 -7.510363
-19.710398 58.182757 73.401988 174.324399 -30.705880 -2.883128 4.167942 22.876705 5.506321 0.394350 3.440903 0.404399 0.650893 5.505146 0.681445 2.691027 19.316745 2.873128 -0.949072 8.158540 -2.579760 -0.597363 -20.731096 -4.489277 2.715292 -0.134001 -2.286793 12.551207 -19.415189 -10.109179 26.387879 -65.299402 1.192419 21.434068 -9.353282 -41.634723 -4.538298 -0.505848 -2.438511 9.795126 -12.714364 -14.333380 -92.564691 -50.967450 53.924617 -9.995363 -5.914786 27.771072 7.291020 -40.685313 0.733189 -4.845906 64.640449 -6.933406 5.327666 10.924900 8.898637 -0.900692 0.080986 -0.376050 -4.341012 -46.748529 4.233350 23.393364 58.400972 23.566374 -11.337610 41.920139 3.962409 0.608226 -20.686616 -7.453918
-19.692512 58.192647 73.403142 174.314866 -30.665639 -2.882772 4.190983 22.929538 5.473721 0.397574 3.406219 0.413123 0.654510 5.494039 0.679205 2.691608 19.359205 2.786253 -0.979121 7.923323 -2.559601 -0.660470 -21.096460 -4.538531 2.695690 -0.206298 -2.283657 12.062136 -18.586891 -9.755622 26.807627 -66.395249 1.271504 21.353951 -9.272395 -41.549380 -4.422007 -0.423015 -2.318588 10.196406 -12.114832 -14.141604 -93.375077 -51.216576 54.707393 -9.913512 -6.825065 28.432102 7.286544 -40.727289 0.709363 -4.837228 64.633259 -6.872185 5.345046 10.967765 8.857310 -0.896940 0.079110 -0.384596 -4.321180 -46.784857 4.291711 23.360592 58.403685 23.509049 -11.418116 41.964696 3.912032 0.655846 -20.728315 -7.428321
